<?xml version="1.0" encoding="utf-8"?>
<!-- Generator: Adobe Illustrator 24.0.1, SVG Export Plug-In . SVG Version: 6.00 Build 0)  -->
<svg version="1.1" id="Layer_1" xmlns="http://www.w3.org/2000/svg" xmlns:xlink="http://www.w3.org/1999/xlink" x="0px" y="0px"
	 width="180px" height="32px" viewBox="0 0 180 32" style="enable-background:new 0 0 180 32;" xml:space="preserve">
<style type="text/css">
	.st0{fill:url(#SVGID_1_);}
	.st1{fill:#FFFFFF;}
	.st2{fill:#1C71E4;}
</style>
<linearGradient id="SVGID_1_" gradientUnits="userSpaceOnUse" x1="1.225" y1="-352" x2="31.225" y2="-352" gradientTransform="matrix(1 0 0 -1 0 -336)">
	<stop  offset="8.250826e-03" style="stop-color:#2F80ED"/>
	<stop  offset="1" style="stop-color:#1C71E4"/>
</linearGradient>
<circle class="st0" cx="16.2" cy="16" r="15"/>
<g>
	<path class="st1" d="M16.2,4.8c-3.1,0-5.6,2.5-5.6,5.6v1.5c0,0.3,0.2,0.6,0.6,0.6c0.1,0,0.2,0,0.3-0.1c0.6-0.3,1.3-0.5,1.9-0.6
		c0.4-0.1,0.6-0.4,0.6-0.8v-0.6c0-1.3,1-2.3,2.3-2.3s2.3,1,2.3,2.3V11c0,0.4,0.3,0.7,0.6,0.8c0.7,0.1,1.3,0.4,1.9,0.6
		c0.1,0,0.2,0.1,0.3,0.1c0.3,0,0.5-0.3,0.5-0.6v-1.5C21.8,7.3,19.3,4.8,16.2,4.8z"/>
	<path class="st1" d="M10.3,13.7c-0.3,0.1-0.5,0.4-0.6,0.7c-0.3,1-0.4,2-0.4,3c0,2.2,0.6,4.4,1.8,6.1c1.1,1.7,2.8,3,4.7,3.6
		c0.1,0,0.3,0.1,0.5,0.1s0.3,0,0.5-0.1c1.9-0.6,3.5-1.9,4.6-3.6c1.2-1.8,1.8-3.9,1.8-6.1c0-1-0.1-2.1-0.4-3.1
		c-0.1-0.3-0.3-0.5-0.6-0.7c-1.8-1-3.9-1.6-6-1.6C14.1,12.1,12.1,12.7,10.3,13.7z M17.1,19.1l0.4,2.3c0,0.2-0.1,0.3-0.3,0.3h-1.9
		c-0.2,0-0.3-0.1-0.3-0.3l0.4-2.3c0-0.2-0.1-0.4-0.2-0.6c-0.1-0.2-0.3-0.5-0.3-0.8c0-0.7,0.6-1.3,1.3-1.3s1.3,0.6,1.3,1.3
		c0,0.3-0.1,0.5-0.3,0.8C17.1,18.6,17.1,18.9,17.1,19.1z"/>
</g>
<g>
	<path class="st2" d="M36.6,8.2h3.1v4.7h1.6v-1.6h1.6V9.8h1.6V8.2h3.1v3.1H46v1.6h-1.6v1.6h-1.6v3.1h1.6v1.6H46v1.6h1.6v3.1h-3.1
		v-1.6h-1.6v-1.6h-1.6v-1.6h-1.6v4.7h-3.1V8.2z"/>
	<path class="st2" d="M49.1,12.9h1.6v-1.6h6.3v1.6h1.6v6.3h-6.3v1.6h6.3v3.1h-7.8v-1.6h-1.6V12.9z M52.2,14.4V16h3.1v-1.6L52.2,14.4
		L52.2,14.4z"/>
	<path class="st2" d="M60,12.9h1.6v-1.6h6.3v1.6h1.6v6.3h-6.3v1.6h6.3v3.1h-7.8v-1.6H60V12.9z M63.1,14.4V16h3.1v-1.6L63.1,14.4
		L63.1,14.4z"/>
	<path class="st2" d="M70.9,11.3h7.8v1.6h1.6v7.8h-1.6v1.5h-4.7v3.1h-3.1V11.3z M74.1,19.1h3.1v-4.7h-3.1V19.1z"/>
	<path class="st2" d="M81.9,12.9h1.6v-1.6h6.3v1.6h1.6v6.3H85v1.6h6.3v3.1h-7.8v-1.6h-1.6V12.9z M85,14.4V16h3.1v-1.6L85,14.4
		L85,14.4z"/>
	<path class="st2" d="M92.8,11.3h3.1v1.6h1.6v-1.6h3.1v1.6h1.6V16h-3.1v-1.6h-1.6V16h-1.6v7.8h-3.1V11.3z"/>
	<path class="st2" d="M103.8,20.7h3.1v3.1h-3.1V20.7z"/>
	<path class="st2" d="M110,8.2h9.4v3.1h-6.3v3.1h4.7v3.1h-4.7v6.3H110V8.2z"/>
	<path class="st2" d="M120.9,6.6h3.1v3.1h-3.1V6.6z M120.9,11.3h3.1v12.5h-3.1V11.3z"/>
	<path class="st2" d="M125.6,11.3h3.1v1.6h1.6v-1.6h3.1v1.6h1.6v10.9h-3.1v-9.4h-1.6V16h-1.6v7.8h-3.1L125.6,11.3L125.6,11.3z"/>
	<path class="st2" d="M138.1,11.3h6.3v1.6h1.6v10.9h-7.8v-1.6h-1.6v-4.7h1.6V16h4.7v-1.6h-4.7V11.3z M139.7,20.7h3.1v-1.6h-3.1V20.7
		z"/>
	<path class="st2" d="M147.5,11.3h3.1v1.6h1.6v-1.6h3.1v1.6h1.6v10.9h-3.1v-9.4h-1.6V16h-1.6v7.8h-3.1V11.3z"/>
	<path class="st2" d="M158.4,12.9h1.6v-1.6h6.3v1.6h1.6V16h-3.1v-1.6h-3.1v6.2h3.1v-1.6h3.1v3.2h-1.6v1.6H160v-1.6h-1.6V12.9z"/>
	<path class="st2" d="M169.4,12.9h1.6v-1.6h6.3v1.6h1.6v6.3h-6.3v1.6h6.3v3.1h-7.8v-1.6h-1.6V12.9z M172.5,14.4V16h3.1v-1.6
		L172.5,14.4L172.5,14.4z"/>
</g>
</svg>
