<?xml version="1.0" encoding="utf-8"?>
<!-- Generator: Adobe Illustrator 24.0.1, SVG Export Plug-In . SVG Version: 6.00 Build 0)  -->
<svg version="1.1" id="Layer_1" xmlns="http://www.w3.org/2000/svg" xmlns:xlink="http://www.w3.org/1999/xlink" x="0px" y="0px"
	 width="720px" height="128px" viewBox="0 0 720 128" style="enable-background:new 0 0 720 128;" xml:space="preserve">
<style type="text/css">
	.st0{fill:url(#SVGID_1_);}
	.st1{fill:#FFFFFF;}
	.st2{fill:#1C71E4;}
</style>
<linearGradient id="SVGID_1_" gradientUnits="userSpaceOnUse" x1="4.3" y1="806" x2="124.3" y2="806" gradientTransform="matrix(1 0 0 1 0 -742)">
	<stop  offset="8.250826e-03" style="stop-color:#2F80ED"/>
	<stop  offset="1" style="stop-color:#1C71E4"/>
</linearGradient>
<circle class="st0" cx="64.3" cy="64" r="60"/>
<g>
	<path class="st1" d="M64.3,19c-12.4,0-22.5,10.1-22.5,22.5v6c0,1.3,0.9,2.3,2.2,2.3c0.3,0,0.7-0.1,1-0.2c2.4-1,5-1.9,7.7-2.5
		c1.4-0.3,2.4-1.6,2.4-3v-2.6c0-5,4.1-9.1,9.1-9.1s9.1,4.1,9.1,9.1V44c0,1.4,1,2.7,2.4,3c2.7,0.6,5.3,1.5,7.7,2.5
		c0.3,0.1,0.7,0.2,1,0.2c1.3,0,2.2-1,2.2-2.3v-6C86.7,29.1,76.6,19,64.3,19z"/>
	<path class="st1" d="M40.5,54.7c-1,0.6-1.9,1.7-2.3,2.8c-1.1,3.9-1.7,8.1-1.7,12.2c0,8.9,2.5,17.4,7.3,24.5
		c4.6,6.9,11.3,12,18.6,14.5c0.6,0.2,1.3,0.3,1.8,0.3c0.5,0,1.1,0,1.8-0.3c7.4-2.5,14-7.6,18.6-14.5c4.8-7.1,7.3-15.5,7.3-24.5
		c0-4.2-0.6-8.3-1.7-12.2C90,56.4,89,55.3,88,54.7c-7.3-4-15.5-6.2-23.8-6.2C56,48.5,47.7,50.7,40.5,54.7z M67.8,76.3l1.5,9.1
		c0.1,0.7-0.4,1.3-1.1,1.3h-7.8c-0.8,0-1.3-0.6-1.1-1.3l1.5-9.1c0.1-0.7-0.3-1.7-0.7-2.3c-0.6-0.8-1-1.9-1-3c0-2.9,2.4-5.3,5.3-5.3
		s5.3,2.4,5.3,5.3c0,1.1-0.4,2.2-1,3C68,74.6,67.7,75.6,67.8,76.3z"/>
</g>
<g>
	<path class="st2" d="M139.7,95.8V25.4h12.8v70.5L139.7,95.8L139.7,95.8z M181,25.4l-14.5,35.1l14.4,35.4H167l-14-35.4l14.1-35.1
		C167.1,25.4,181,25.4,181,25.4z"/>
	<path class="st2" d="M200.5,41h11.8c8,0,12.1,3.7,12.1,11.1v20h-23.8v11.3c0,1.2,0.2,2,0.6,2.4c0.4,0.4,1.2,0.6,2.5,0.6h5.1
		c1.2,0,2-0.2,2.5-0.6c0.4-0.4,0.7-1.2,0.7-2.4v-4.1h12.3v5.6c0,7.4-4.1,11.1-12.2,11.1h-11.6c-8.1,0-12.2-3.7-12.2-11.1V52
		C188.4,44.7,192.4,41,200.5,41z M200.6,63.9h11.6V53.4c0-1.2-0.2-2-0.7-2.4c-0.4-0.4-1.3-0.6-2.5-0.6h-5.4c-1.2,0-2,0.2-2.5,0.6
		c-0.4,0.4-0.7,1.2-0.7,2.4v10.5H200.6z"/>
	<path class="st2" d="M246.5,41h11.8c8,0,12.1,3.7,12.1,11.1v20h-23.8v11.3c0,1.2,0.2,2,0.6,2.4c0.4,0.4,1.2,0.6,2.5,0.6h5.1
		c1.2,0,2-0.2,2.5-0.6c0.4-0.4,0.7-1.2,0.7-2.4v-4.1h12.3v5.6c0,7.4-4.1,11.1-12.2,11.1h-11.6c-8.1,0-12.2-3.7-12.2-11.1V52
		C234.4,44.7,238.4,41,246.5,41z M246.7,63.9h11.6V53.4c0-1.2-0.2-2-0.7-2.4c-0.4-0.4-1.3-0.6-2.5-0.6h-5.4c-1.2,0-2,0.2-2.5,0.6
		c-0.4,0.4-0.7,1.2-0.7,2.4v10.5H246.7z"/>
	<path class="st2" d="M301.4,41h3.3c7.7,0,11.5,3.7,11.5,11.1v32.7c0,7.4-3.8,11.1-11.5,11.1h-3.3c-4.1,0-6.7-1.6-7.8-4.7V111H281
		V41h12.5v5C294.5,42.7,297.1,41,301.4,41z M303.5,83V53.8c0-1.2-0.2-2-0.7-2.4c-0.4-0.4-1.3-0.6-2.5-0.6H297
		c-2.3,0-3.5,1.2-3.5,3.7v27.8c0,2.5,1.2,3.7,3.5,3.7h3.3c1.2,0,2-0.2,2.5-0.6S303.5,84.2,303.5,83z"/>
	<path class="st2" d="M338.8,41h11.8c8,0,12.1,3.7,12.1,11.1v20h-23.8v11.3c0,1.2,0.2,2,0.6,2.4s1.2,0.6,2.5,0.6h5.1
		c1.2,0,2-0.2,2.5-0.6c0.4-0.4,0.7-1.2,0.7-2.4v-4.1h12.3v5.6c0,7.4-4.1,11.1-12.2,11.1h-11.6c-8.1,0-12.2-3.7-12.2-11.1V52
		C326.6,44.7,330.7,41,338.8,41z M338.9,63.9h11.6V53.4c0-1.2-0.2-2-0.7-2.4c-0.4-0.4-1.3-0.6-2.5-0.6H342c-1.2,0-2,0.2-2.5,0.6
		c-0.4,0.4-0.7,1.2-0.7,2.4v10.5H338.9z"/>
	<path class="st2" d="M395.5,40.8h2v10.9h-4.7c-4.7,0-7,2.7-7,8v36.1h-12.6V41h12.5v7c0.6-2.2,1.7-3.9,3.5-5.2
		C390.8,41.4,393,40.8,395.5,40.8z"/>
	<path class="st2" d="M404.1,95.8V80.7h13.6v15.1C417.7,95.8,404.1,95.8,404.1,95.8z"/>
	<path class="st2" d="M463.3,35.2h-21.2v21.4h17.3V66h-17.3v29.8h-13V25.4h34.2V35.2z"/>
	<path class="st2" d="M471,32.1V21h13.3v11.1H471z M483.9,95.8h-12.6V41h12.6V95.8z"/>
	<path class="st2" d="M516.2,41h3.3c7.7,0,11.5,3.7,11.5,11.1v43.8h-12.7v-42c0-1.2-0.2-2-0.7-2.4c-0.4-0.4-1.3-0.6-2.5-0.6h-3.3
		c-2.3,0-3.5,1.2-3.5,3.7v41.3h-12.6V41h12.5v5C509.3,42.7,512,41,516.2,41z"/>
	<path class="st2" d="M564.5,41H577v54.8h-12.7v-4.7c-1.1,3.1-3.7,4.7-7.7,4.7h-3.5c-7.6,0-11.4-3.7-11.4-11.1V52
		c0-7.4,3.8-11.1,11.4-11.1h3.5c4.4,0,7,1.8,7.9,5.4V41z M557.5,86h3.3c2.3,0,3.5-1.2,3.5-3.7V54.5c0-2.5-1.2-3.7-3.5-3.7h-3.3
		c-1.2,0-2,0.2-2.5,0.6c-0.4,0.4-0.7,1.2-0.7,2.4V83c0,1.2,0.2,2,0.7,2.4S556.3,86,557.5,86z"/>
	<path class="st2" d="M609.2,41h3.3c7.7,0,11.5,3.7,11.5,11.1v43.8h-12.7v-42c0-1.2-0.2-2-0.7-2.4c-0.4-0.4-1.3-0.6-2.5-0.6h-3.3
		c-2.3,0-3.5,1.2-3.5,3.7v41.3h-12.6V41h12.5v5C602.3,42.7,605,41,609.2,41z"/>
	<path class="st2" d="M670.1,59.4h-12.4v-5.6c0-1.2-0.2-2-0.7-2.4c-0.4-0.4-1.3-0.6-2.5-0.6h-4c-1.2,0-2,0.2-2.5,0.6
		c-0.4,0.4-0.7,1.2-0.7,2.4V83c0,1.2,0.2,2,0.7,2.4c0.4,0.4,1.3,0.6,2.5,0.6h4c1.2,0,2-0.2,2.5-0.6c0.4-0.4,0.7-1.2,0.7-2.4v-5.7
		h12.4v7.5c0,7.4-4.1,11.1-12.2,11.1H647c-8.1,0-12.2-3.7-12.2-11.1V52c0-7.4,4.1-11.1,12.2-11.1h10.9c8.1,0,12.2,3.7,12.2,11.1
		L670.1,59.4L670.1,59.4z"/>
	<path class="st2" d="M691.8,41h11.8c8,0,12.1,3.7,12.1,11.1v20H692v11.3c0,1.2,0.2,2,0.6,2.4c0.4,0.4,1.2,0.6,2.5,0.6h5.1
		c1.2,0,2-0.2,2.5-0.6c0.4-0.4,0.7-1.2,0.7-2.4v-4.1h12.3v5.6c0,7.4-4.1,11.1-12.2,11.1h-11.6c-8.1,0-12.2-3.7-12.2-11.1V52
		C679.7,44.7,683.7,41,691.8,41z M692,63.9h11.6V53.4c0-1.2-0.2-2-0.7-2.4c-0.4-0.4-1.3-0.6-2.5-0.6H695c-1.2,0-2,0.2-2.5,0.6
		c-0.4,0.4-0.7,1.2-0.7,2.4v10.5H692z"/>
</g>
</svg>
